<mxfile host="app.diagrams.net" agent="Mozilla/5.0 (Windows NT 10.0; Win64; x64; rv:139.0) Gecko/20100101 Firefox/139.0" version="26.2.14">
  <diagram name="Page-1" id="BbwpbvS8BRUh1gAscrvs">
    <mxGraphModel dx="2887" dy="1084" grid="1" gridSize="10" guides="1" tooltips="1" connect="1" arrows="1" fold="1" page="1" pageScale="1" pageWidth="850" pageHeight="1100" math="0" shadow="0">
      <root>
        <mxCell id="0" />
        <mxCell id="1" parent="0" />
        <mxCell id="IE3H_PvMWQA-5wgTKLuX-63" value="" style="rounded=0;whiteSpace=wrap;html=1;aspect=fixed;" vertex="1" parent="1">
          <mxGeometry x="-440" y="90" width="440" height="782.22" as="geometry" />
        </mxCell>
        <mxCell id="IE3H_PvMWQA-5wgTKLuX-2" value="" style="ellipse;whiteSpace=wrap;html=1;aspect=fixed;sketch=1;curveFitting=1;jiggle=2;fillColor=#dae8fc;strokeColor=#6c8ebf;" vertex="1" parent="1">
          <mxGeometry x="-50.94" y="100" width="40" height="40" as="geometry" />
        </mxCell>
        <mxCell id="IE3H_PvMWQA-5wgTKLuX-3" value="" style="ellipse;whiteSpace=wrap;html=1;aspect=fixed;sketch=1;curveFitting=1;jiggle=2;fillColor=#060606;" vertex="1" parent="1">
          <mxGeometry x="-431" y="230" width="422.81" height="422.81" as="geometry" />
        </mxCell>
        <mxCell id="IE3H_PvMWQA-5wgTKLuX-4" value="" style="ellipse;whiteSpace=wrap;html=1;aspect=fixed;sketch=1;curveFitting=1;jiggle=2;" vertex="1" parent="1">
          <mxGeometry x="-306.84" y="354.78000000000003" width="169.22" height="169.22" as="geometry" />
        </mxCell>
        <mxCell id="IE3H_PvMWQA-5wgTKLuX-6" value="" style="ellipse;whiteSpace=wrap;html=1;aspect=fixed;sketch=1;curveFitting=1;jiggle=2;fillColor=#fff2cc;strokeColor=#d6b656;" vertex="1" parent="1">
          <mxGeometry x="-306.84" y="356.7900000000001" width="169.22" height="169.22" as="geometry" />
        </mxCell>
        <mxCell id="IE3H_PvMWQA-5wgTKLuX-22" value="" style="rounded=0;whiteSpace=wrap;html=1;sketch=1;curveFitting=1;jiggle=2;glass=0;shadow=0;" vertex="1" parent="1">
          <mxGeometry x="-45.940000000000055" y="659" width="30" height="200" as="geometry" />
        </mxCell>
        <mxCell id="IE3H_PvMWQA-5wgTKLuX-23" value="" style="rounded=0;whiteSpace=wrap;html=1;sketch=1;curveFitting=1;jiggle=2;glass=0;shadow=0;fillColor=#dae8fc;strokeColor=#6c8ebf;" vertex="1" parent="1">
          <mxGeometry x="-45.940000000000055" y="716.81" width="30" height="142.18" as="geometry" />
        </mxCell>
        <mxCell id="IE3H_PvMWQA-5wgTKLuX-24" value="" style="ellipse;whiteSpace=wrap;html=1;aspect=fixed;fillColor=#f8cecc;strokeColor=#b85450;sketch=1;curveFitting=1;jiggle=2;" vertex="1" parent="1">
          <mxGeometry x="-45.940000000000055" y="706.81" width="30" height="30" as="geometry" />
        </mxCell>
        <mxCell id="IE3H_PvMWQA-5wgTKLuX-30" value="" style="ellipse;whiteSpace=wrap;html=1;aspect=fixed;fillColor=#f8cecc;strokeColor=#b85450;sketch=1;curveFitting=1;jiggle=2;" vertex="1" parent="1">
          <mxGeometry x="-247.37" y="690" width="50" height="50" as="geometry" />
        </mxCell>
        <mxCell id="IE3H_PvMWQA-5wgTKLuX-32" value="" style="triangle;whiteSpace=wrap;html=1;fillColor=#f8cecc;strokeColor=#b85450;sketch=1;curveFitting=1;jiggle=2;" vertex="1" parent="1">
          <mxGeometry x="-177.37" y="690" width="52.38" height="50" as="geometry" />
        </mxCell>
        <mxCell id="IE3H_PvMWQA-5wgTKLuX-33" value="" style="triangle;whiteSpace=wrap;html=1;fillColor=#f8cecc;strokeColor=#b85450;sketch=1;curveFitting=1;jiggle=2;rotation=-180;" vertex="1" parent="1">
          <mxGeometry x="-314.21000000000004" y="690" width="50" height="50" as="geometry" />
        </mxCell>
        <mxCell id="IE3H_PvMWQA-5wgTKLuX-34" value="" style="whiteSpace=wrap;html=1;aspect=fixed;sketch=1;curveFitting=1;jiggle=2;fillColor=#fff2cc;strokeColor=#d6b656;" vertex="1" parent="1">
          <mxGeometry x="-425" y="107.19" width="125" height="125" as="geometry" />
        </mxCell>
        <mxCell id="IE3H_PvMWQA-5wgTKLuX-35" value="&lt;div&gt;Song Name&lt;/div&gt;&lt;div&gt;Album Name&lt;/div&gt;&lt;div&gt;Artist Name&lt;/div&gt;" style="text;align=left;verticalAlign=middle;rounded=0;fontFamily=Just Another Hand;fontSource=https%3A%2F%2Ffonts.googleapis.com%2Fcss%3Ffamily%3DJust%2BAnother%2BHand;fontSize=24;fontStyle=0;spacing=4;spacingRight=0;html=1;" vertex="1" parent="1">
          <mxGeometry x="-290" y="145" width="80" height="30" as="geometry" />
        </mxCell>
        <mxCell id="IE3H_PvMWQA-5wgTKLuX-50" style="edgeStyle=orthogonalEdgeStyle;rounded=0;orthogonalLoop=1;jettySize=auto;html=1;entryX=0;entryY=0.5;entryDx=0;entryDy=0;fillColor=#f8cecc;strokeColor=#b85450;" edge="1" parent="1" target="IE3H_PvMWQA-5wgTKLuX-24">
          <mxGeometry relative="1" as="geometry">
            <mxPoint x="-80.99882352941177" y="867.6099999999999" as="sourcePoint" />
            <Array as="points">
              <mxPoint x="-60" y="868" />
              <mxPoint x="-60" y="722" />
            </Array>
          </mxGeometry>
        </mxCell>
        <mxCell id="IE3H_PvMWQA-5wgTKLuX-48" value="&lt;div align=&quot;right&quot;&gt;Volume Slider&lt;/div&gt;" style="text;html=1;align=right;verticalAlign=middle;whiteSpace=wrap;rounded=0;fontColor=#B85450;fontFamily=Courier New;" vertex="1" parent="1">
          <mxGeometry x="-211.17999999999995" y="849" width="150" height="20" as="geometry" />
        </mxCell>
        <mxCell id="IE3H_PvMWQA-5wgTKLuX-51" value="Playback Controls" style="text;html=1;align=right;verticalAlign=middle;whiteSpace=wrap;rounded=0;fontColor=#B85450;fontFamily=Courier New;" vertex="1" parent="1">
          <mxGeometry x="-450.00000000000006" y="670" width="150" height="20" as="geometry" />
        </mxCell>
        <mxCell id="IE3H_PvMWQA-5wgTKLuX-52" style="edgeStyle=orthogonalEdgeStyle;rounded=0;orthogonalLoop=1;jettySize=auto;html=1;exitX=0.25;exitY=0;exitDx=0;exitDy=0;entryX=1.026;entryY=0.593;entryDx=0;entryDy=0;entryPerimeter=0;fillColor=#f8cecc;strokeColor=#b85450;" edge="1" parent="1" source="IE3H_PvMWQA-5wgTKLuX-51" target="IE3H_PvMWQA-5wgTKLuX-33">
          <mxGeometry relative="1" as="geometry">
            <mxPoint x="382.5799999999999" y="455.0799999999999" as="targetPoint" />
            <Array as="points">
              <mxPoint x="-430" y="670" />
              <mxPoint x="-430" y="710" />
            </Array>
          </mxGeometry>
        </mxCell>
        <mxCell id="IE3H_PvMWQA-5wgTKLuX-53" value="Centre Label" style="text;html=1;align=left;verticalAlign=middle;whiteSpace=wrap;rounded=0;fontColor=#B85450;fontFamily=Courier New;" vertex="1" parent="1">
          <mxGeometry x="-96" y="628" width="150" height="20" as="geometry" />
        </mxCell>
        <mxCell id="IE3H_PvMWQA-5wgTKLuX-54" value="" style="endArrow=classic;html=1;rounded=0;entryX=0;entryY=0.5;entryDx=0;entryDy=0;fillColor=#f8cecc;strokeColor=#b85450;" edge="1" parent="1" source="IE3H_PvMWQA-5wgTKLuX-6" target="IE3H_PvMWQA-5wgTKLuX-53">
          <mxGeometry width="50" height="50" relative="1" as="geometry">
            <mxPoint x="-75" y="719.22" as="sourcePoint" />
            <mxPoint x="-25" y="669.22" as="targetPoint" />
          </mxGeometry>
        </mxCell>
        <mxCell id="IE3H_PvMWQA-5wgTKLuX-55" value="Vinyl" style="text;html=1;align=left;verticalAlign=middle;whiteSpace=wrap;rounded=0;fontColor=#B85450;fontFamily=Courier New;" vertex="1" parent="1">
          <mxGeometry x="-105" y="650" width="150" height="20" as="geometry" />
        </mxCell>
        <mxCell id="IE3H_PvMWQA-5wgTKLuX-56" value="" style="endArrow=classic;html=1;rounded=0;entryX=0;entryY=0.5;entryDx=0;entryDy=0;fillColor=#f8cecc;strokeColor=#b85450;" edge="1" parent="1" source="IE3H_PvMWQA-5wgTKLuX-3" target="IE3H_PvMWQA-5wgTKLuX-55">
          <mxGeometry width="50" height="50" relative="1" as="geometry">
            <mxPoint x="-115" y="729.22" as="sourcePoint" />
            <mxPoint x="-65" y="679.22" as="targetPoint" />
          </mxGeometry>
        </mxCell>
        <mxCell id="IE3H_PvMWQA-5wgTKLuX-66" value="Album Art" style="text;html=1;align=left;verticalAlign=middle;whiteSpace=wrap;rounded=0;fontColor=#B85450;fontFamily=Courier New;" vertex="1" parent="1">
          <mxGeometry x="-145" y="205" width="150" height="20" as="geometry" />
        </mxCell>
        <mxCell id="IE3H_PvMWQA-5wgTKLuX-67" value="" style="endArrow=none;html=1;rounded=0;exitX=1.017;exitY=0.867;exitDx=0;exitDy=0;exitPerimeter=0;entryX=0;entryY=0.5;entryDx=0;entryDy=0;fillColor=#f8cecc;strokeColor=#b85450;startFill=1;startArrow=classic;" edge="1" parent="1" source="IE3H_PvMWQA-5wgTKLuX-34" target="IE3H_PvMWQA-5wgTKLuX-66">
          <mxGeometry width="50" height="50" relative="1" as="geometry">
            <mxPoint x="-250" y="220" as="sourcePoint" />
            <mxPoint x="-200" y="170" as="targetPoint" />
          </mxGeometry>
        </mxCell>
        <mxCell id="IE3H_PvMWQA-5wgTKLuX-69" value="" style="rounded=1;whiteSpace=wrap;html=1;fillColor=#f8cecc;strokeColor=#b85450;sketch=1;curveFitting=1;jiggle=2;" vertex="1" parent="1">
          <mxGeometry x="-262.37" y="780" width="80" height="40" as="geometry" />
        </mxCell>
        <mxCell id="IE3H_PvMWQA-5wgTKLuX-70" value="Scan Button&amp;nbsp; &amp;nbsp; &amp;nbsp;&amp;nbsp;" style="text;html=1;align=right;verticalAlign=middle;whiteSpace=wrap;rounded=0;fontColor=#B85450;fontFamily=Courier New;" vertex="1" parent="1">
          <mxGeometry x="-431.00000000000006" y="805" width="150" height="20" as="geometry" />
        </mxCell>
        <mxCell id="IE3H_PvMWQA-5wgTKLuX-71" style="edgeStyle=orthogonalEdgeStyle;rounded=0;orthogonalLoop=1;jettySize=auto;html=1;exitX=0.143;exitY=1.074;exitDx=0;exitDy=0;entryX=1.026;entryY=0.593;entryDx=0;entryDy=0;entryPerimeter=0;fillColor=#f8cecc;strokeColor=#b85450;exitPerimeter=0;" edge="1" parent="1" source="IE3H_PvMWQA-5wgTKLuX-70">
          <mxGeometry relative="1" as="geometry">
            <mxPoint x="-263.37" y="800" as="targetPoint" />
            <Array as="points">
              <mxPoint x="-409" y="800" />
            </Array>
          </mxGeometry>
        </mxCell>
        <mxCell id="IE3H_PvMWQA-5wgTKLuX-72" value="" style="ellipse;whiteSpace=wrap;html=1;aspect=fixed;sketch=1;curveFitting=1;jiggle=2;fillColor=#dae8fc;strokeColor=#6c8ebf;" vertex="1" parent="1">
          <mxGeometry x="-137.62" y="100" width="40" height="40" as="geometry" />
        </mxCell>
        <mxCell id="IE3H_PvMWQA-5wgTKLuX-73" value="" style="endArrow=classic;html=1;rounded=0;sketch=1;curveFitting=1;jiggle=2;" edge="1" parent="1">
          <mxGeometry width="50" height="50" relative="1" as="geometry">
            <mxPoint x="-91.18" y="119.8" as="sourcePoint" />
            <mxPoint x="-61.18" y="119.8" as="targetPoint" />
          </mxGeometry>
        </mxCell>
        <mxCell id="IE3H_PvMWQA-5wgTKLuX-74" value="User Image" style="text;html=1;align=left;verticalAlign=middle;whiteSpace=wrap;rounded=0;fontColor=#B85450;fontFamily=Courier New;" vertex="1" parent="1">
          <mxGeometry x="-174.37" y="155" width="150" height="20" as="geometry" />
        </mxCell>
        <mxCell id="IE3H_PvMWQA-5wgTKLuX-75" value="Host Image" style="text;html=1;align=left;verticalAlign=middle;whiteSpace=wrap;rounded=0;fontColor=#B85450;fontFamily=Courier New;" vertex="1" parent="1">
          <mxGeometry x="-91" y="175" width="150" height="20" as="geometry" />
        </mxCell>
        <mxCell id="IE3H_PvMWQA-5wgTKLuX-76" value="" style="endArrow=classic;html=1;rounded=0;exitX=0.382;exitY=0.25;exitDx=0;exitDy=0;entryX=0.5;entryY=1;entryDx=0;entryDy=0;exitPerimeter=0;fillColor=#f8cecc;strokeColor=#b85450;" edge="1" parent="1" source="IE3H_PvMWQA-5wgTKLuX-74" target="IE3H_PvMWQA-5wgTKLuX-72">
          <mxGeometry width="50" height="50" relative="1" as="geometry">
            <mxPoint x="-60" y="170" as="sourcePoint" />
            <mxPoint x="-10" y="120" as="targetPoint" />
          </mxGeometry>
        </mxCell>
        <mxCell id="IE3H_PvMWQA-5wgTKLuX-77" value="" style="endArrow=classic;html=1;rounded=0;entryX=0.5;entryY=1;entryDx=0;entryDy=0;exitX=0.401;exitY=0.186;exitDx=0;exitDy=0;exitPerimeter=0;fillColor=#f8cecc;strokeColor=#b85450;" edge="1" parent="1" source="IE3H_PvMWQA-5wgTKLuX-75" target="IE3H_PvMWQA-5wgTKLuX-2">
          <mxGeometry width="50" height="50" relative="1" as="geometry">
            <mxPoint x="30" y="170" as="sourcePoint" />
            <mxPoint x="80" y="120" as="targetPoint" />
          </mxGeometry>
        </mxCell>
      </root>
    </mxGraphModel>
  </diagram>
</mxfile>
